<svg xmlns="http://www.w3.org/2000/svg" width="70" height="53" viewBox="0 0 70 53"><script xmlns=""/><g><g><g><path fill="#fff" d="M18.08 23c-5.357 0-9.74-4.197-9.74-9.328v-3.344C8.34 5.198 12.723 1 18.08 1c5.358 0 9.741 4.197 9.741 9.328v3.344c0 5.13-4.383 9.328-9.74 9.328z"/></g><g><path fill="#fff" d="M51.92 22c-5.357 0-9.74-4.197-9.74-9.328V9.328C42.18 4.198 46.563 0 51.92 0c5.358 0 9.741 4.197 9.741 9.328v3.344c0 5.13-4.383 9.328-9.74 9.328z"/></g><g><path fill="#fff" d="M34.997 33c-3.947 0-7.177-3.053-7.177-6.784v-2.432c0-3.73 3.23-6.784 7.177-6.784 3.947 0 7.177 3.053 7.177 6.784v2.432c0 3.732-3.23 6.784-7.177 6.784z"/></g><g><path fill="#fff" d="M38.94 34a8.675 8.675 0 0 1-3.941.95 8.675 8.675 0 0 1-3.942-.95c-5.293.776-9.387 5.29-9.387 10.699v7.116c0 .651.542 1.185 1.205 1.185h24.248c.662 0 1.205-.533 1.205-1.185V44.7c0-5.41-4.095-9.923-9.387-10.699z"/></g><g><path fill="#fff" d="M19.827 45.769c0-5.455 3.233-10.329 7.997-12.728a10.179 10.179 0 0 1-1.704-5.63v-2.447c0-.147.016-.29.023-.434a15.164 15.164 0 0 0-2.289-.53 11.938 11.938 0 0 1-5.412 1.3c-1.948 0-3.787-.475-5.413-1.3C5.761 25.062.14 31.24.14 38.64v9.74c0 .89.745 1.62 1.654 1.62h18.033z"/></g><g><path fill="#fff" d="M56.975 23a11.938 11.938 0 0 1-5.412 1.3c-1.948 0-3.787-.475-5.413-1.3-.786.115-1.547.3-2.29.53.007.145.024.287.024.434v2.446c0 2.075-.63 4.006-1.704 5.63 4.764 2.4 7.997 7.273 7.997 12.728V49h18.032c.91 0 1.655-.73 1.655-1.62v-9.74c0-7.401-5.622-13.578-12.889-14.64z"/></g></g></g></svg>