<svg xmlns="http://www.w3.org/2000/svg" width="91" height="98" viewBox="0 0 91 98"><script xmlns=""/><g><g><g><path fill="#fff" d="M52.406 53.58a14.744 14.744 0 0 1-8.151 2.46c-3.027 0-5.822-.922-8.15-2.46-4.658 1.384-8.306 5.458-8.927 10.532l-.466 5.996a3.043 3.043 0 0 0 3.027 3.306h28.877c1.785 0 3.26-1.538 3.105-3.306l-.466-5.996c-.543-5.074-4.192-9.071-8.85-10.532z"/></g><g><path fill="#fff" d="M44.263 52.203c6.087 0 11.022-4.888 11.022-10.917S50.35 30.37 44.264 30.37c-6.088 0-11.023 4.887-11.023 10.916 0 6.03 4.935 10.917 11.023 10.917z"/></g><g><path fill="#fff" d="M73.519 20.06c-.543.23-.93-.384-1.008-.538-.233-.461-.233-.846-.078-.923 1.086-.615 2.481-1.537 3.024-2.536l.31-.539-.698-.076c-1.86-.154-3.333-1.692-3.333-3.537 0-1.998 1.628-3.613 3.643-3.613 2.016 0 3.643 1.615 3.643 3.613.078 4.459-2.945 6.842-5.503 8.149zm-10.322 0c-.543.23-.931-.384-1.01-.538-.232-.461-.232-.846-.077-.923 1.087-.615 2.484-1.537 3.028-2.536l.31-.539-.62-.076c-1.864-.154-3.339-1.692-3.339-3.537 0-1.998 1.63-3.613 3.649-3.613 2.018 0 3.648 1.615 3.648 3.613-.078 4.459-3.027 6.842-5.589 8.149zM83.612.38H56.91c-2.328 0-4.269 1.845-4.269 4.228v19.296a4.236 4.236 0 0 0 4.27 4.228h3.958v7.072c0 1.384 1.63 2.076 2.64 1.154l8.538-8.15h11.489c2.328 0 4.27-1.844 4.27-4.227V4.608C87.881 2.225 85.94.38 83.611.38z"/></g><g><g><path fill="#fff" d="M16.124 87.693l-5.258-.69-2.278-4.658c0-.172-.176-.345-.35-.345-.176 0-.351.173-.351.345l-2.279 4.658-5.257.69c-.176 0-.351.172-.351.345 0 .172 0 .345.175.517l3.856 3.623-.876 5.175c0 .173 0 .345.175.518.175.172.35.172.526 0l4.732-2.415 4.732 2.415h.175c.175 0 .175 0 .35-.173.176-.172.176-.345.176-.517l-.877-5.176L17 88.383c-.526 0-.526-.173-.526-.345 0-.173-.175-.345-.35-.345z"/></g><g><path fill="#fff" d="M33.96 87.693l-5.205-.69-2.255-4.658c0-.172-.173-.345-.347-.345-.173 0-.347.173-.347.345l-2.255 4.658-5.204.69c-.174 0-.347.172-.347.345 0 .172 0 .345.173.517l3.817 3.623-.868 5.175c0 .173 0 .345.174.518.173.172.347.172.52 0l4.684-2.415 4.684 2.415h.173c.174 0 .174 0 .347-.173.174-.172.174-.345.174-.517l-.868-5.176 3.817-3.622c.173-.173.173-.345.173-.518-.694 0-.867-.172-1.04-.172z"/></g><g><path fill="#fff" d="M52.96 87.693l-5.205-.69-2.255-4.658c0-.172-.173-.345-.347-.345-.173 0-.347.173-.347.345l-2.255 4.658-5.204.69c-.174 0-.347.172-.347.345 0 .172 0 .345.173.517l3.817 3.623-.868 5.175c0 .173 0 .345.174.518.173.172.347.172.52 0l4.684-2.415 4.684 2.415h.173c.174 0 .174 0 .347-.173.174-.172.174-.345.174-.517l-.868-5.176 3.817-3.622c.173-.173.173-.345.173-.518-.694 0-.867-.172-1.04-.172z"/></g><g><path fill="#fff" d="M71.96 87.693l-5.205-.69-2.255-4.658c0-.172-.173-.345-.347-.345-.173 0-.347.173-.347.345l-2.255 4.658-5.204.69c-.174 0-.347.172-.347.345 0 .172 0 .345.173.517l3.817 3.623-.868 5.175c0 .173 0 .345.174.518.173.172.347.172.52 0l4.684-2.415 4.684 2.415h.173c.174 0 .174 0 .347-.173.174-.172.174-.345.174-.517l-.868-5.176 3.817-3.622c.173-.173.173-.345.173-.518-.694 0-.867-.172-1.04-.172z"/></g><g><path fill="#fff" d="M90.474 88.038c0-.173-.175-.345-.35-.345l-5.258-.69-2.278-4.658c0-.172-.176-.345-.35-.345-.176 0-.351.173-.351.345l-2.279 4.658-5.257.69c-.176 0-.351.172-.351.345 0 .172 0 .345.175.517l3.856 3.623-.876 5.175c0 .173 0 .345.175.518.175.172.35.172.526 0l4.732-2.415 4.732 2.415h.175c.175 0 .175 0 .35-.173.176-.172.176-.345.176-.517l-.877-5.176L91 88.383c-.526 0-.526-.173-.526-.345z"/></g></g></g></g></svg>