<svg xmlns="http://www.w3.org/2000/svg" width="60" height="51" viewBox="0 0 60 51"><script xmlns=""/><g><g><g><path fill="#fff" d="M36.479 50.221c1.193.42 2.362.624 3.494.624 2.498 0 4.848-1.02 6.915-3.012 1.563-1.5 2.928-3.168 4.17-4.74.998-1.272 1.391-2.856 1.071-4.344-.32-1.488-1.328-2.784-2.756-3.552-2.584-1.392-5.266-2.712-7.85-3.984l-2.251-1.116c-2.313-1.152-3.974-.888-4.959-.456-1.008.432-2.35 1.476-3.05 4.008a.347.347 0 0 0-.025.12 1.73 1.73 0 0 1-1.12 1.092 1.857 1.857 0 0 1-1.661-.264c-4.442-3.312-8.231-6.996-11.603-11.268a1.641 1.641 0 0 1-.283-1.584c.197-.552.616-.96 1.268-1.14.049-.012.098-.024.16-.036 2.62-.708 3.666-2.088 4.072-3.12.43-1.092.603-2.904-1.021-5.388-1.23-1.896-2.227-3.996-3.199-6.024-.443-.924-.886-1.848-1.353-2.76C15.353 1.045 13.852.301 12.794.061c-1.046-.228-2.707-.18-4.7 1.332-1.489 1.152-3.051 2.4-4.503 3.768C.38 8.209-.531 11.905.982 15.865c6.35 16.752 18.296 28.308 35.497 34.356z"/></g><g><path fill="#fff" d="M25.02 21.666l10.689-10.864L25.02 4.19z"/></g><g><path fill="#fff" d="M59.327 21.664V4.19L48.64 10.802z"/></g><g><path fill="#fff" d="M42.83 14.4a1.25 1.25 0 0 1-1.316 0l-3.686-2.28L25.8 24.346c.14.054.29.09.45.09h31.842c.16 0 .31-.036.45-.09L46.516 12.12z"/></g><g><path fill="#fff" d="M57.746 2.33H26.6l15.574 9.633z"/></g></g></g></svg>