<svg xmlns="http://www.w3.org/2000/svg" width="71" height="69" viewBox="0 0 71 69"><script xmlns=""/><g><g><g><path fill="#fff" d="M36.67 43.94c2.604-.384 4.497-2.077 4.497-4.155 0-2.077-1.972-3.77-4.497-4.155z"/></g><g><path fill="#fff" d="M30.12 29.395c0 2.078 1.972 3.77 4.497 4.156V25.24c-2.525.385-4.497 2.078-4.497 4.155z"/></g><g><path fill="#fff" d="M43.219 39.785c0 3.156-2.84 5.696-6.549 6.08v3.542c0 .538-.473 1-1.025 1-.553 0-1.026-.462-1.026-1v-3.541c-3.708-.385-6.549-3.002-6.549-6.081 0-.539.474-1 1.026-1s1.026.461 1.026 1c0 2.078 1.972 3.772 4.497 4.157v-8.39c-3.708-.386-6.549-3.003-6.549-6.082 0-3.079 2.84-5.696 6.549-6.08v-3.465c0-.538.473-1 1.026-1 .552 0 1.025.462 1.025 1v3.464c3.709.385 6.549 3.002 6.549 6.081 0 .54-.473 1.001-1.026 1.001-.552 0-1.025-.462-1.025-1 0-2.079-1.973-3.772-4.498-4.157v8.39c3.709.385 6.549 2.925 6.549 6.08zM35.645 14C23.968 14 14.5 23.234 14.5 34.623c0 11.388 9.468 20.622 21.145 20.622s21.144-9.234 21.144-20.622C56.79 23.234 47.322 14 35.645 14z"/></g><g><path fill="#fff" d="M58.455 34.62c0 12.231-10.259 22.233-22.806 22.233-12.548 0-22.807-10.002-22.807-22.234 0-12.232 10.26-22.233 22.807-22.233 12.547 0 22.806 10 22.806 22.233zm11.588-.996l-8.757-8.542c-.395-.384-.553-.846-.553-1.385v-12.08a1.48 1.48 0 0 0-1.499-1.463H46.847c-.552 0-1.025-.23-1.42-.539L36.67 1.074c-.552-.539-1.499-.539-2.05 0L25.86 9.615c-.394.385-.867.54-1.42.54H12.053c-.789 0-1.499.615-1.499 1.461v12.081c0 .539-.236 1-.552 1.385l-8.758 8.542a1.415 1.415 0 0 0 0 2l8.758 8.542c.394.385.552.846.552 1.385v12.081c0 .77.631 1.462 1.5 1.462H24.44c.553 0 1.026.231 1.42.539l8.758 8.541c.552.539 1.5.539 2.051 0l8.758-8.541c.395-.385.868-.539 1.42-.539h12.387c.79 0 1.5-.615 1.5-1.462v-12.08c0-.54.236-1.001.552-1.386l8.757-8.541a1.415 1.415 0 0 0 0-2.001z"/></g></g></g></svg>